<svg width="18" height="18" viewBox="0 0 18 18" fill="none" xmlns="http://www.w3.org/2000/svg">
<path d="M15.9249 4.36507C15.7984 3.98412 15.6298 3.6455 15.419 3.3492L17 1.69842L16.3043 1L14.6601 2.5873C14.365 2.33333 14.0277 2.16402 13.6482 2.07936C12.805 1.78306 11.9618 1.80422 11.1186 2.14285C10.6548 2.31216 10.2543 2.5873 9.91699 2.96826L8.083 4.80952L13.2055 9.95238L15.0395 8.1111C15.419 7.77248 15.693 7.37036 15.8617 6.90475C16.1989 6.05819 16.22 5.21163 15.9249 4.36507ZM14.913 6.52381C14.7866 6.8201 14.5968 7.09523 14.3439 7.3492L13.2055 8.49206L9.53755 4.80952L10.6759 3.66665C10.9289 3.41269 11.2029 3.22222 11.498 3.09523C12.1726 2.84126 12.8472 2.84126 13.5217 3.09523C13.8169 3.26454 14.0698 3.47619 14.2806 3.73016C14.5336 3.9418 14.7444 4.19577 14.913 4.49206C15.166 5.16931 15.166 5.84656 14.913 6.52381ZM9.1581 12.4921L10.9289 10.6508L10.17 9.88888L8.46245 11.7302L6.24901 9.50794L8.01976 7.66665L7.26087 6.90475L5.49012 8.74603L4.79447 8.04762L2.96048 9.88888C2.58103 10.2275 2.30699 10.6296 2.13834 11.0952C1.9697 11.5185 1.88537 11.9629 1.88537 12.4286C1.88537 12.8518 1.92754 13.254 2.01186 13.6349C2.13834 13.9735 2.32807 14.3122 2.58103 14.6508L1 16.2381L1.69565 17L3.33992 15.4127C3.63505 15.6243 3.97233 15.7936 4.35178 15.9206C4.73123 16.0476 5.13175 16.1111 5.55336 16.1111C6.01713 16.1111 6.45982 16.0264 6.88143 15.8571C7.34519 15.6455 7.74572 15.3704 8.083 15.0317L9.91699 13.1905L9.1581 12.4921ZM6.50198 14.8413C6.16469 15.0106 5.8274 15.0952 5.49012 15.0952C5.15283 15.0952 4.81555 15.0317 4.47826 14.9048C4.18314 14.7354 3.90909 14.545 3.65613 14.3333C3.40316 14.0794 3.21344 13.8042 3.08696 13.5079C2.96048 13.1693 2.89724 12.8307 2.89724 12.4921C2.89724 11.7725 3.1502 11.1587 3.65613 10.6508L4.79447 9.50794L8.46245 13.1905L7.32411 14.3333C7.07115 14.545 6.7971 14.7143 6.50198 14.8413Z" fill="#CC76D1"/>
</svg>
