<svg width="18" height="18" viewBox="0 0 18 18" fill="none" xmlns="http://www.w3.org/2000/svg">
<path d="M15 3.69084C15 3.19466 14.7234 2.73664 14.1702 2.3168C13.6596 1.89695 12.9362 1.57251 12 1.3435C11.0638 1.1145 10.0638 1 9 1C7.93617 1 6.93617 1.1145 6 1.3435C5.06383 1.57251 4.31915 1.89695 3.76596 2.3168C3.25532 2.73664 3 3.19466 3 3.69084L3.06383 3.80534H3V13.3092L3.06383 13.7099C3.23404 14.3588 3.87234 14.9122 4.97873 15.3702C6.12766 15.7901 7.46809 16 9 16C10.5319 16 11.8511 15.7901 12.9575 15.3702C14.1064 14.9122 14.766 14.3588 14.9362 13.7099L15 13.3092V3.80534H14.9362L15 3.69084ZM9 2.08779C9.89362 2.08779 10.7447 2.18321 11.5532 2.37405C12.234 2.52672 12.766 2.73664 13.1489 3.00382C13.5745 3.271 13.7872 3.5 13.7872 3.69084C13.7872 3.88168 13.5745 4.11069 13.1489 4.37786C12.766 4.60687 12.234 4.7977 11.5532 4.95038C10.7447 5.14122 9.89362 5.23665 9 5.23665C8.10638 5.23665 7.25532 5.14122 6.44681 4.95038C5.76596 4.7977 5.21276 4.60687 4.78723 4.37786C4.40425 4.11069 4.21277 3.88168 4.21277 3.69084C4.21277 3.5 4.40425 3.271 4.78723 3.00382C5.21276 2.73664 5.76596 2.52672 6.44681 2.37405C7.25532 2.18321 8.10638 2.08779 9 2.08779ZM13.7872 13.3092L13.7234 13.4809C13.6809 13.6718 13.4468 13.8817 13.0213 14.1107C12.6383 14.3397 12.1277 14.5305 11.4894 14.6832C10.7234 14.874 9.89362 14.9695 9 14.9695C8.10638 14.9695 7.27659 14.874 6.51064 14.6832C5.87234 14.5305 5.34043 14.3397 4.9149 14.1107C4.53192 13.8817 4.31915 13.6718 4.27659 13.4809L4.21277 13.3092V5.29389C5.70213 6.05725 7.29787 6.41985 9 6.38168C10.7021 6.41985 12.2979 6.03817 13.7872 5.23665V13.3092Z" fill="#5292F7"/>
</svg>
