<svg width="568" height="563" viewBox="0 0 568 563" fill="none" xmlns="http://www.w3.org/2000/svg">
<path d="M382.8 17.7632C382 10.8299 379.067 6.69652 372.267 3.22985C367.333 0.696522 364.4 0.296497 347.333 0.0298345C319.333 -0.370159 297.333 3.22985 274.667 12.1632C234.667 27.7632 201.067 59.8965 181.333 101.096C161.2 143.23 159.467 186.43 176.667 221.496C185.2 239.096 193.333 245.63 205.2 244.43C210.667 243.896 212.533 243.096 216.267 238.963C222.4 232.296 222.267 225.897 215.467 209.763C196.8 166.163 206.4 125.363 243.467 89.3632C271.867 62.0298 305.6 46.8298 354.4 39.3632C365.6 37.7632 373.2 35.8965 375.333 34.4298C380.4 30.6965 383.6 23.6298 382.8 17.7632Z" fill="#1E2C49"/>
<path d="M494.133 215.363C469.467 190.696 442.267 174.563 411.6 166.563C395.867 162.43 364.4 161.096 353.333 163.896C340.133 167.363 332.267 174.03 330.533 182.83C329.333 189.363 330.667 193.496 335.867 199.23C341.067 204.83 340.933 204.83 368 202.83C380.4 202.03 384.8 202.296 396 204.696C448 215.496 488.8 262.43 502.267 327.096C504.8 339.496 505.2 346.03 505.467 373.496C505.6 393.096 506.133 406.696 507.067 408.163C510 413.896 515.2 417.23 521.6 417.763C539.067 419.363 546.933 400.696 548.267 353.896C549.067 326.163 547.2 310.83 539.867 288.83C530.133 259.763 516.533 237.896 494.133 215.363Z" fill="#1E2C49"/>
<path d="M41.2 216.163C36.5333 191.896 35.8667 189.896 31.4667 185.63C23.3333 177.896 9.19998 180.03 3.06665 190.03C0.266663 194.43 0 196.296 0 216.163C0.133331 239.23 1.46658 249.496 7.33325 272.163C16.1332 305.496 30.5333 331.496 54 356.03C84.5333 387.896 122.267 408.296 166.4 417.096C185.6 420.83 214.667 421.096 230.533 417.63C262.8 410.563 291.733 392.696 300.133 374.83C303.867 366.963 304.133 363.496 301.067 357.23C298.133 350.963 292.133 347.496 284.667 347.496C279.333 347.496 277.2 348.43 266.8 356.163C244.133 372.963 230.133 377.496 203.333 377.363C188.533 377.23 183.067 376.563 172.667 373.896C145.6 366.563 120.533 351.496 98 328.83C68.9333 299.896 50.1333 262.43 41.2 216.163Z" fill="#1E2C49"/>
<circle cx="206" cy="316" r="21" fill="#1E2C49"/>
<circle cx="154" cy="295" r="21" fill="#567CCA"/>
<circle cx="120" cy="253" r="21" fill="#1E2C49"/>
<circle cx="99" cy="148" r="21" fill="#1E2C49"/>
<circle cx="99" cy="200" r="21" fill="#567CCA"/>
<circle cx="112" cy="96" r="21" fill="#567CCA"/>
<circle cx="141" cy="48" r="21" fill="#1E2C49"/>
<circle cx="266.343" cy="164.391" r="21" transform="rotate(107.5 266.343 164.391)" fill="#1E2C49"/>
<circle cx="302.007" cy="121.112" r="21" transform="rotate(107.5 302.007 121.112)" fill="#567CCA"/>
<circle cx="352.288" cy="101.316" r="21" transform="rotate(107.5 352.288 101.316)" fill="#1E2C49"/>
<circle cx="458.743" cy="112.862" r="21" transform="rotate(107.5 458.743 112.862)" fill="#1E2C49"/>
<circle cx="409.149" cy="97.225" r="21" transform="rotate(107.5 409.149 97.225)" fill="#567CCA"/>
<circle cx="504.427" cy="140.897" r="21" transform="rotate(107.5 504.427 140.897)" fill="#567CCA"/>
<circle cx="541.485" cy="182.988" r="21" transform="rotate(107.5 541.485 182.988)" fill="#1E2C49"/>
<circle cx="364.787" cy="345.707" r="21" transform="rotate(-101.295 364.787 345.707)" fill="#1E2C49"/>
<circle cx="354.377" cy="400.812" r="21" transform="rotate(-101.295 354.377 400.812)" fill="#567CCA"/>
<circle cx="319.849" cy="442.381" r="21" transform="rotate(-101.295 319.849 442.381)" fill="#1E2C49"/>
<circle cx="220.996" cy="483.539" r="21" transform="rotate(-101.295 220.996 483.539)" fill="#1E2C49"/>
<circle cx="271.99" cy="473.353" r="21" transform="rotate(-101.295 271.99 473.353)" fill="#567CCA"/>
<circle cx="167.457" cy="480.974" r="21" transform="rotate(-101.295 167.457 480.974)" fill="#567CCA"/>
<circle cx="114.707" cy="461.937" r="21" transform="rotate(-101.295 114.707 461.937)" fill="#1E2C49"/>
<circle cx="400.494" cy="263.632" r="21" transform="rotate(-156.5 400.494 263.632)" fill="#1E2C49"/>
<circle cx="439.809" cy="303.625" r="21" transform="rotate(-156.5 439.809 303.625)" fill="#567CCA"/>
<circle cx="454.24" cy="355.699" r="21" transform="rotate(-156.5 454.24 355.699)" fill="#1E2C49"/>
<circle cx="431.631" cy="460.364" r="21" transform="rotate(-156.5 431.631 460.364)" fill="#1E2C49"/>
<circle cx="398.973" cy="502.868" r="21" transform="rotate(-156.5 398.973 502.868)" fill="#567CCA"/>
<circle cx="353.239" cy="535.323" r="21" transform="rotate(-156.5 353.239 535.323)" fill="#1E2C49"/>
<circle cx="452.365" cy="412.677" r="21" transform="rotate(-156.5 452.365 412.677)" fill="#567CCA"/>
<circle cx="297" cy="271" r="43" fill="#1E2C49"/>
</svg>
